<svg width="21" height="16" viewBox="0 0 21 16" fill="none" xmlns="http://www.w3.org/2000/svg">
<path d="M13.25 6.91667C15.0483 6.91667 16.4892 5.46501 16.4892 3.66667C16.4892 1.86834 15.0483 0.416672 13.25 0.416672C11.4517 0.416672 10 1.86834 10 3.66667C10 5.46501 11.4517 6.91667 13.25 6.91667ZM4.58333 6.91667C6.38167 6.91667 7.8225 5.46501 7.8225 3.66667C7.8225 1.86834 6.38167 0.416672 4.58333 0.416672C2.785 0.416672 1.33333 1.86834 1.33333 3.66667C1.33333 5.46501 2.785 6.91667 4.58333 6.91667ZM4.58333 9.08334C2.05917 9.08334 -3 10.3508 -3 12.875V15.5833H12.1667V12.875C12.1667 10.3508 7.1075 9.08334 4.58333 9.08334ZM13.25 9.08334C12.9358 9.08334 12.5783 9.10501 12.1992 9.13751C13.4558 10.0475 14.3333 11.2717 14.3333 12.875V15.5833H20.8333V12.875C20.8333 10.3508 15.7742 9.08334 13.25 9.08334Z" fill="white"/>
</svg>
