<svg width="40" height="40" viewBox="0 0 40 40" fill="none" xmlns="http://www.w3.org/2000/svg">
<g clip-path="url(#clip0_29_32)">
<path d="M12.9403 9.90119C14.7088 9.90119 16.1425 8.46749 16.1425 6.69893C16.1425 4.93037 14.7088 3.49667 12.9403 3.49667C11.1717 3.49667 9.73801 4.93037 9.73801 6.69893C9.73801 8.46749 11.1717 9.90119 12.9403 9.90119Z" fill="#3CB878"/>
<path d="M19.4512 37.7125L18.281 29.1164C18.2637 28.9891 18.2327 28.8641 18.1885 28.7434L16.5171 24.1868V20.4086C15.3502 20.9719 13.9556 20.4876 13.3845 19.3291L11.0772 14.6341L14.3396 18.529C15.0266 19.3491 16.3357 19.1455 16.7457 18.1629L19.0015 12.7561C19.3044 12.0302 18.9614 11.1963 18.2356 10.8934C17.5098 10.5905 16.6758 10.9336 16.3729 11.6593L15.019 14.9045L13.2605 12.8052L14.2437 13.5266L15.3089 10.9837H10.4963C9.4652 10.9837 8.60311 11.7055 8.38627 12.6712V12.4354C8.38627 11.1037 7.30672 10.0241 5.97504 10.0241C4.64343 10.0241 3.56372 11.1036 3.56372 12.4354V15.6611H2.88408C2.4212 15.6611 2.04596 16.0363 2.04596 16.4992V19.1813C2.04596 19.6442 2.4212 20.0194 2.88408 20.0194H3.56372C3.56372 21.6742 4.84299 22.7936 6.26957 22.7936H8.33316V24.2454H8.33501L8.10399 29.7646L5.00988 37.2747C4.63533 38.1837 5.06862 39.2242 5.97766 39.5987C6.88685 39.9733 7.92732 39.5398 8.30171 38.631L11.5155 30.8308C11.5945 30.6388 11.6395 30.4345 11.6481 30.2271C11.9135 23.8858 11.8966 24.3165 11.8966 24.2455H12.7462L14.7792 29.7882L15.9233 38.1929C16.056 39.1681 16.9544 39.8493 17.9272 39.7167C18.9016 39.5839 19.5838 38.6866 19.4512 37.7125Z" fill="#3CB878"/>
<path d="M31.4263 6.67118C33.1949 6.67118 34.6286 5.23748 34.6286 3.46892C34.6286 1.70036 33.1949 0.266663 31.4263 0.266663C29.6578 0.266663 28.2241 1.70036 28.2241 3.46892C28.2241 5.23748 29.6578 6.67118 31.4263 6.67118Z" fill="#3CB878"/>
<path d="M37.9375 34.4823L36.7673 25.8862C36.7499 25.7589 36.7189 25.6339 36.6747 25.5133L35.0034 20.9567V19.4449C34.3632 19.2413 30.6844 18.0717 29.9444 17.8363C29.0703 17.5583 28.5373 16.7079 28.6255 15.8303L29.1464 10.6248L29.8593 15.6554C29.9361 16.1972 30.3164 16.647 30.8378 16.8128L35.5069 18.2974C36.2562 18.5356 37.0572 18.1215 37.2955 17.3718C37.5338 16.6222 37.1194 15.8214 36.3699 15.5831L32.5537 14.3696L31.9664 10.2253L33.184 13.2625L35.0034 13.8411V9.91676C35.0034 8.72205 34.0349 7.75358 32.8402 7.75358H28.9826C27.9514 7.75358 27.0893 8.47531 26.8725 9.44108V9.20521C26.8725 7.87352 25.7929 6.7939 24.4612 6.7939C23.1294 6.7939 22.0499 7.87345 22.0499 9.20521V13.1787H21.4166C20.9537 13.1787 20.5784 13.5539 20.5784 14.0168V16.3517C20.5784 16.8146 20.9537 17.1899 21.4166 17.1899H22.071C22.2349 18.5274 23.3739 19.5634 24.7558 19.5634H26.8194V21.0152H26.8212L26.5902 26.5344L23.4961 34.0444C23.1216 34.9534 23.5549 35.9939 24.4639 36.3685C25.3738 36.7433 26.4137 36.3089 26.7879 35.4007L30.0016 27.6005C30.0807 27.4086 30.1256 27.2042 30.1343 26.9968C30.3997 20.6548 30.3827 21.0866 30.3827 21.0152H31.2324L33.2654 26.558L34.4095 34.9626C34.5423 35.9378 35.4407 36.6191 36.4134 36.4864C37.3879 36.3537 38.0701 35.4564 37.9375 34.4823Z" fill="#3CB878"/>
</g>
<defs>
<clipPath id="clip0_29_32">
<rect width="39.4667" height="39.4667" fill="white" transform="translate(0.266663 0.266663)"/>
</clipPath>
</defs>
</svg>
