<svg width="34" height="49" viewBox="0 0 34 49" fill="none" xmlns="http://www.w3.org/2000/svg">
<path d="M33.5228 45.0929C31.5095 34.4957 31.5966 34.9469 31.5867 34.9033C31.3227 33.5638 30.5805 32.4517 29.3772 31.7549C28.8144 31.4282 28.4898 31.3773 28.2061 31.2802L23.2601 29.4793L21.6117 28.2942V26.9499C24.0222 25.4487 25.5568 22.8635 25.8374 20.0659C27.8517 20.1638 29.2556 18.1456 28.411 16.3787V10.7221C28.411 6.63143 26.2888 5.20831 25.6404 4.86913C22.4678 0.898872 16.5436 -0.11939 12.0525 2.29637L12.0439 2.3009C11.9669 2.34836 11.0413 2.79727 9.90156 3.79628C9.62505 4.04701 9.59478 4.48518 9.83386 4.77504C10.0734 5.06527 10.4915 5.09627 10.7675 4.846C15.1659 0.97446 21.6942 1.96931 24.7123 5.87037C24.7866 5.96631 24.8771 6.03709 24.9875 6.08039C25.0732 6.11647 27.0873 7.00502 27.0873 10.7221V15.1013C26.72 14.9383 26.3174 14.8548 25.8883 14.8674V12.5978C25.8883 12.022 25.4746 11.5462 24.9259 11.4907C23.8136 11.3781 23.1903 10.6183 22.8632 10.001C22.4539 9.22816 21.4767 9.04303 20.836 9.61701C17.8846 12.2617 14.4863 12.396 12.1553 12.0436C10.3945 11.7771 8.75678 13.0344 8.4718 14.8683C8.04322 14.8489 7.61977 14.9284 7.23046 15.1012C7.23302 12.7123 6.97011 10.1131 8.83391 7.13464C9.03391 6.81378 8.94785 6.38385 8.64178 6.1742C8.33579 5.96446 7.92558 6.05448 7.72559 6.37552C5.18909 10.4499 6.09663 14.1007 5.90653 16.3786C5.06244 18.1448 6.46449 20.1638 8.48009 20.0657C8.80911 23.3606 10.7453 25.256 10.7913 25.3385L10.7914 25.3386C11.135 25.684 11.7522 26.4055 12.9552 27.1006V28.2939L11.307 29.479C4.85645 31.8279 5.51114 31.5429 4.98707 31.8785C3.99656 32.5181 3.31001 33.4963 3.02388 34.7007C2.96749 34.9388 3.06113 34.4889 1.0442 45.0926C1.0036 45.3068 0.98224 45.7243 1.01869 46.0784C1.1682 47.5345 2.15332 48.3696 3.72146 48.3696H21.9098C22.2754 48.3696 22.5717 48.059 22.5717 47.6757C22.5717 47.2924 22.2754 46.9818 21.9098 46.9818H8.3763V40.6241C8.3763 40.2408 8.07994 39.9302 7.71438 39.9302C7.34882 39.9302 7.05245 40.2408 7.05245 40.6241V46.9819H3.72129C2.68348 46.9819 2.19612 46.5153 2.34634 45.3437C4.15763 36.0656 4.16151 35.3169 4.45779 34.5567C4.50942 34.4809 4.79484 33.4103 6.19424 32.7875C6.3389 32.7253 6.2487 32.767 6.74629 32.608C6.777 32.5988 6.62529 32.6528 9.00248 31.7876L10.588 34.8559C10.7621 35.1928 11.1637 35.3182 11.4853 35.1355C11.8068 34.9529 11.9262 34.5318 11.752 34.1948L10.2697 31.3261L11.2834 30.9569C11.7721 31.9027 16.0989 40.2753 16.5692 41.1854C16.8595 41.749 17.5985 41.7771 17.939 41.2849C18.0007 41.1958 17.6483 41.859 23.2751 30.9538L24.2886 31.3228L18.9301 41.7135C18.2237 43.0833 16.3457 43.0834 15.6384 41.715L13.2235 37.0417C13.0492 36.7048 12.6477 36.5793 12.3261 36.7621C12.0047 36.9448 11.8853 37.3658 12.0594 37.7028L14.4745 42.3762C15.6825 44.7133 18.8892 44.7112 20.0947 42.3736L25.5556 31.7842C27.9275 32.6475 27.7884 32.5982 27.8191 32.6075C28.2857 32.7565 28.2338 32.7278 28.3712 32.7868C28.8774 33.0128 29.1795 33.2736 29.1707 33.2668C29.6897 33.7056 30.0476 34.2126 30.2387 34.9591C30.2701 35.0775 32.2351 45.2909 32.2431 45.6355C32.2628 46.5067 31.904 46.9819 30.8459 46.9819H27.5145V40.6241C27.5145 40.2408 27.2182 39.9302 26.8526 39.9302C26.4869 39.9302 26.1907 40.2408 26.1907 40.6241V46.9819H24.9984C24.6328 46.9819 24.3365 47.2925 24.3365 47.6758C24.3365 48.0591 24.6328 48.3697 24.9984 48.3697H30.8457C32.4138 48.3697 33.3989 47.5346 33.5482 46.0793C33.5843 45.7321 33.5631 45.3057 33.5228 45.0929ZM25.8882 16.2556C26.6515 16.2133 27.3347 16.7523 27.3347 17.4673C27.3347 18.1894 26.6441 18.7211 25.8882 18.6791V16.2556ZM8.42943 18.6791C7.66619 18.7215 6.98291 18.1824 6.98291 17.4674C6.98291 16.7453 7.67351 16.2137 8.42943 16.2556V18.6791ZM11.9661 13.4171C14.568 13.8108 18.368 13.6542 21.6959 10.6719L21.7057 10.6746C22.3451 11.8815 23.3538 12.6434 24.5644 12.841V15.2982L23.8091 15.7655C23.498 15.2957 22.9805 14.9869 22.395 14.9869H19.3659C18.6515 14.9869 18.0378 15.4459 17.7779 16.0971H16.5398C16.2799 15.4459 15.666 14.9869 14.9516 14.9869H11.9225C11.337 14.9869 10.8193 15.2957 10.5085 15.7655L9.75664 15.3003C9.82177 14.1141 10.8447 13.2471 11.9661 13.4171ZM22.7922 16.791V18.1729C22.7922 18.7748 22.325 19.2644 21.7508 19.2644H20.01C19.4358 19.2644 18.9687 18.7747 18.9687 18.1729V16.791H18.9688C18.9688 16.5654 19.1507 16.3747 19.3659 16.3747H22.395C22.6103 16.3747 22.7922 16.5654 22.7922 16.791ZM15.3488 16.791V18.1729C15.3488 18.7748 14.8817 19.2644 14.3075 19.2644H12.5666C11.9924 19.2644 11.5254 18.7747 11.5254 18.1729V16.791C11.5254 16.5654 11.7073 16.3747 11.9225 16.3747H14.9516C15.1669 16.3747 15.3488 16.5654 15.3488 16.791ZM11.5384 24.134C9.39611 21.5165 9.80906 18.9749 9.75328 16.9097L10.2017 17.1872V18.1729C10.2017 19.5399 11.2627 20.6522 12.5667 20.6522H14.3076C15.6117 20.6522 16.6726 19.54 16.6726 18.1729V17.4848H17.6453V18.1729C17.6453 19.5399 18.7062 20.6522 20.0103 20.6522H21.7512C23.0553 20.6522 24.1163 19.54 24.1163 18.1729V17.1872L24.5647 16.9097V19.0794C24.5647 23.2065 21.4487 26.7923 17.1591 26.8417C17.1502 26.8416 17.061 26.841 17.0699 26.8411C15.9256 26.8289 15.0463 26.5215 15.1353 26.5477C13.8364 26.17 12.5976 25.3905 11.5384 24.134ZM17.2835 31.8969L14.2791 28.3923V27.7193C15.6608 28.2224 17.0936 28.338 18.4278 28.1341C18.8 28.0774 19.2007 27.9844 19.4351 27.915C19.4908 27.896 19.8104 27.8159 20.288 27.6233V28.3924L17.2835 31.8969ZM18.029 34.3698L17.7365 35.0011H16.8306L16.538 34.3698L17.2835 33.7958L18.029 34.3698ZM15.5391 36.279L15.1176 35.4633L15.4533 35.2049L15.7043 35.7465L15.5391 36.279ZM14.4857 34.2282L12.4746 30.3284L13.5147 29.5765L16.303 32.8291C16.1419 32.9528 14.6439 34.1064 14.4857 34.2282ZM17.2834 39.6541L16.4091 37.9623L16.8971 36.3888H17.6703L18.1574 37.9595C17.8803 38.4965 17.6231 38.9953 17.2834 39.6541ZM19.0265 36.2739L18.8629 35.7464L19.1138 35.2048L19.4459 35.4605L19.0265 36.2739ZM20.0815 34.2282C19.9095 34.0958 18.4716 32.9887 18.2643 32.8291L21.0526 29.5765L22.0927 30.3284C21.4247 31.6234 20.515 33.3875 20.0815 34.2282Z" fill="#3F7AFC" stroke="#3F7AFC" stroke-width="0.5"/>
</svg>
